<svg id="Layer_1" enable-background="new 0 0 512 512" height="512" viewBox="0 0 512 512" width="512" xmlns="http://www.w3.org/2000/svg"><g id="XMLID_1024_"><g id="XMLID_1269_"><path id="XMLID_1353_" d="m373.706 277.735v-17.735c0-6.617 5.383-12 12-12 16.704 0 30.294-13.59 30.294-30.294v-55.536c0-13.648-9.074-25.212-21.505-28.988-3.799-13.431-16.159-23.305-30.789-23.305h-12v-14.171c0-52.772-42.934-95.706-95.706-95.706s-95.706 42.934-95.706 95.706v71.333c0 33.248 17.045 62.586 42.853 79.747v30.948h-64.824c-65.862 0-119.444 53.582-119.444 119.443v104.823c0 5.522 4.478 10 10 10h61.121c5.522 0 10-4.478 10-10s-4.478-10-10-10h-51.122v-94.822c0-54.833 44.61-99.443 99.444-99.443h18.769l83.829 194.265h-60.92c-5.522 0-10 4.478-10 10s4.478 10 10 10h303.122c5.522 0 10-4.478 10-10v-104.822c0-65.852-53.568-119.428-119.416-119.443zm-117.579 64.78 40.467 40.467-40.467 93.779-40.467-93.779zm48.994 20.708-33.736-33.736 31.997-31.752h30zm90.879-145.517c0 5.676-4.618 10.294-10.294 10.294-17.645 0-32 14.355-32 32v17.734h-44.853v-30.948c24.022-15.974 40.448-42.5 42.606-72.909h12.247c13.023 0 24.247-7.825 29.237-19.017 1.885 1.866 3.057 4.453 3.057 7.31zm-215.706-106.067v-15.933c0-8.148 1.309-15.992 3.702-23.352 3.973-5.81 10.465-9.263 17.526-9.263 6.144 0 11.98 2.658 16.014 7.292l5.436 6.246c8.309 9.547 20.332 15.022 33.028 15.022 12.635 0 24.645-5.459 32.95-14.979l5.506-6.311c4.033-4.621 9.863-7.271 16.021-7.271 7.086 0 13.55 3.437 17.52 9.245 2.397 7.365 3.708 15.216 3.708 23.37v15.933h-151.411zm143.655 20c-.892 15.194-13.535 27.28-28.949 27.28s-28.058-12.086-28.949-27.28zm-78 0c-.892 15.194-13.535 27.28-28.949 27.28s-28.058-12.086-28.949-27.28zm129.757 10.238c0 6.617-5.383 12-12 12h-12v-24h12c6.617 0 12 5.383 12 12zm-119.706-121.877c21.315 0 40.588 8.869 54.36 23.093-11.876.027-23.161 5.167-30.973 14.12l-5.507 6.312c-4.507 5.165-11.023 8.127-17.92 8.127-6.868 0-13.393-2.971-17.9-8.151l-5.437-6.247c-7.807-8.97-19.095-14.125-30.983-14.159 13.771-14.226 33.044-23.095 54.36-23.095zm-75.706 147.039v-4.711c8.985 10.164 22.106 16.591 36.706 16.591 15.896 0 30.042-7.614 39-19.38 8.958 11.766 23.104 19.38 39 19.38 14.6 0 27.721-6.427 36.706-16.591v4.711c0 41.744-33.962 75.706-75.706 75.706s-75.706-33.962-75.706-75.706zm75.706 95.706c11.537 0 22.603-2.052 32.854-5.81v27.04l-32.854 32.604-32.853-32.602v-27.042c10.25 3.758 21.316 5.81 32.853 5.81zm-47.383 34.989 32.125 31.88-33.609 33.609-28.26-65.489zm264.505 194.266h-201.789l83.83-194.266h18.515c54.834 0 99.444 44.61 99.444 99.443z"/><path id="XMLID_1430_" d="m414.569 420.906h-53.806c-5.522 0-10 4.478-10 10s4.478 10 10 10h53.806c5.522 0 10-4.478 10-10s-4.477-10-10-10z"/><path id="XMLID_1431_" d="m276 203.5c0-5.522-4.478-10-10-10h-20.002c-5.522 0-10 4.478-10 10s4.478 10 10 10h20.002c5.522 0 10-4.478 10-10z"/><path id="XMLID_1438_" d="m135 492c-2.63 0-5.21 1.069-7.07 2.93s-2.93 4.44-2.93 7.07 1.069 5.21 2.93 7.069c1.86 1.86 4.44 2.931 7.07 2.931s5.21-1.07 7.069-2.931c1.861-1.859 2.931-4.439 2.931-7.069s-1.07-5.21-2.931-7.07c-1.859-1.861-4.439-2.93-7.069-2.93z"/></g></g></svg>